<svg width="250" height="200" fill="none" xmlns="http://www.w3.org/2000/svg"><path fill-rule="evenodd" clip-rule="evenodd" d="M113.119 112.307A11.964 11.964 0 0 0 113 114c0 6.627 5.373 12 12 12s12-5.373 12-12c0-.575-.04-1.14-.119-1.693H166V139a3 3 0 0 1-3 3H87a3 3 0 0 1-3-3v-26.693h29.119Z" fill="#fff"/><path fill-rule="evenodd" clip-rule="evenodd" d="M138 112c0 7.18-5.82 13-13 13s-13-5.82-13-13c0-.233.006-.464.018-.693H84l9.56-28.268A3 3 0 0 1 96.402 81h57.196c1.286 0 2.429.82 2.842 2.039l9.56 28.268h-28.018c.012.229.018.46.018.693Z" fill="#fff"/><path fill-rule="evenodd" clip-rule="evenodd" d="M136.098 112.955c0 5.547-4.969 11.045-11.098 11.045-6.129 0-11.098-5.498-11.098-11.045 0-.18.006-1.359.016-1.536H93l8.161-19.843c.352-.942 1.328-1.576 2.426-1.576h42.826c1.098 0 2.074.634 2.426 1.576L157 111.419h-20.918c.01.177.016 1.356.016 1.536Z" fill="#D8EEE3"/><path clip-rule="evenodd" d="M85.25 111.512V138c0 .966.784 1.75 1.75 1.75h76a1.75 1.75 0 0 0 1.75-1.75v-26.488l-9.495-28.073a1.75 1.75 0 0 0-1.657-1.189H96.402a1.75 1.75 0 0 0-1.657 1.19l-9.495 28.072Z" stroke="#01B763" stroke-width="2.5"/><path d="M98 111h12.745c1.876 0 1.876 1.319 1.876 2 0 6.627 5.496 12 12.276 12 6.78 0 12.276-5.373 12.276-12 0-.681 0-2 1.877-2H164m-73.426 0H93h-2.426Z" stroke="#01B763" stroke-width="2.5" stroke-linecap="round" stroke-linejoin="round"/><path d="M150.1 58.303 139 70.756M124.1 54v16.756V54ZM98 58.303l11.1 12.453L98 58.303Z" stroke="#7FE3AE" stroke-width="2.5" stroke-linecap="round" stroke-linejoin="round"/></svg>