<svg width="250" height="200" fill="none" xmlns="http://www.w3.org/2000/svg"><path d="M167 148h22.428M64 148h21.454H64Zm-12.872 0H58h-6.872Zm143 0H197h-2.872Z" stroke="#01B763" stroke-width="2.5" stroke-linecap="round" stroke-linejoin="round"/><path d="m98 43.303 11.1 12.453m41-12.453L139 55.756l11.1-12.453ZM124 39v16.756V39Z" stroke="#7FE3AE" stroke-width="2.5" stroke-linecap="round" stroke-linejoin="round"/><path fill-rule="evenodd" clip-rule="evenodd" d="M92.798 71h62.606l-5.606 8.41 7.475 5.606H90.929l8.41-5.606L92.797 71Z" fill="#D8EEE3"/><rect x="89" y="83" width="71" height="75" rx="2" fill="#fff"/><path fill-rule="evenodd" clip-rule="evenodd" d="M93.585 124.006v-34.36c0-1.416 1.16-2.564 2.592-2.564l60.976 64.082c0 1.888-1.511 3.418-3.375 3.418H96.96c-1.864 0-3.375-1.53-3.375-3.418v-27.158Zm0 7.419v-3.848 3.848Z" fill="#D8EEE3"/><path d="M90 124.463V86.885c0-1.548 1.27-2.803 2.838-2.803h64.923c1.021 0 1.848.837 1.848 1.869v68.213c0 2.064-1.655 3.738-3.696 3.738H93.696c-2.041 0-3.696-1.674-3.696-3.738V136.41m0-3.834v-4.208" stroke="#01B763" stroke-width="2.5" stroke-linecap="round"/><path d="M91.863 84.082V72.869c0-1.032.751-1.869 1.677-1.869h62.056c.926 0 1.677.837 1.677 1.869v11.213" stroke="#01B763" stroke-width="2.5"/><path d="M109.15 103.705a3.27 3.27 0 1 0 0-6.54 3.27 3.27 0 0 0 0 6.54ZM139.986 103.705a3.27 3.27 0 1 0 0-6.542 3.27 3.27 0 0 0 0 6.542Z" fill="#D8EEE3" stroke="#01B763" stroke-width="2.5" stroke-linecap="round"/><path d="M139.519 103.705c0 8.257-6.694 14.951-14.951 14.951-8.257 0-14.951-6.694-14.951-14.951M92.855 71.932l6.578 6.493a1 1 0 0 1-.218 1.587l-7.352 4.07M156.44 71.999l-6.295 6.42a1 1 0 0 0 .235 1.579l7.487 4.084" stroke="#01B763" stroke-width="2.5" stroke-linecap="round"/></svg>