<svg width="250" height="200" fill="none" xmlns="http://www.w3.org/2000/svg"><path d="M120.5 133c18.502 0 33.5-14.998 33.5-33.5 0-18.501-14.998-33.5-33.5-33.5C101.998 66 87 80.999 87 99.5c0 18.502 14.998 33.5 33.5 33.5Z" fill="#E9FAF1" stroke="#01B763" stroke-width="2.5"/><path fill-rule="evenodd" clip-rule="evenodd" d="M115.132 125.494c1.759.325 3.548.493 5.368.506 14.636 0 26.5-11.864 26.5-26.5 0-14.635-11.864-26.5-26.5-26.5-3.76 0-7.336.783-10.576 2.195a26.605 26.605 0 0 0-13.028 12.247A26.387 26.387 0 0 0 94 99.5a26.403 26.403 0 0 0 6.684 17.596" fill="#fff"/><path d="M115.132 125.494c1.759.325 3.548.493 5.368.506 14.636 0 26.5-11.864 26.5-26.5 0-14.635-11.864-26.5-26.5-26.5-3.76 0-7.336.783-10.576 2.195a26.605 26.605 0 0 0-13.028 12.247A26.387 26.387 0 0 0 94 99.5a26.403 26.403 0 0 0 6.684 17.596M103.797 120.075a26.491 26.491 0 0 0 7.204 4.172" stroke="#01B763" stroke-width="2.5" stroke-linecap="round"/><path d="m148 126 6 6" stroke="#01B763" stroke-width="2.5"/><path fill-rule="evenodd" clip-rule="evenodd" d="M153.03 131.03a4.849 4.849 0 0 0 0 6.855l11.086 11.085a4.846 4.846 0 1 0 6.854-6.854l-11.086-11.086a4.848 4.848 0 0 0-6.854 0Z" fill="#D8EEE3" stroke="#01B763" stroke-width="2.5"/><path d="m158 133 11 11" stroke="#fff" stroke-width="2.5" stroke-linecap="round"/><path fill-rule="evenodd" clip-rule="evenodd" d="M114 88c0 11.598 9.402 21 21 21 2.278 0 4.472-.363 6.526-1.034-3.353 8.321-11.503 14.195-21.026 14.195-12.515 0-22.66-10.146-22.66-22.661 0-11.34 8.33-20.735 19.205-22.399A20.913 20.913 0 0 0 114 88Z" fill="#D8EEE3"/><path d="M121 81c-1.273 0-2.518.125-3.721.364m-3.634 1.112C106.804 85.351 102 92.114 102 100" stroke="#7FE3AE" stroke-width="2.5" stroke-linecap="round"/><path d="M174.176 99.777H166M180.5 92h-17.176H180.5Zm7 0h-2.221 2.221ZM84.176 121.777H76M79.5 113H62.324 79.5Zm-23 0h-4.221H56.5Z" stroke="#7FE3AE" stroke-width="2.5" stroke-linecap="round" stroke-linejoin="round"/></svg>