<svg xmlns="http://www.w3.org/2000/svg" width="127" height="127" viewBox="0 0 127 127" version="1.1"><path d="M 26.250 23.525 C 24.015 25.912, 24 26.139, 24 57.464 C 24 77.821, 24.354 89, 25 89 C 25.550 89, 26 88.100, 26 87 C 26 85.900, 26.450 85, 27 85 C 27.550 85, 28 84.100, 28 83 C 28 81.900, 28.450 81, 29 81 C 29.550 81, 30 79.650, 30 78 C 30 76.350, 30.450 75, 31 75 C 31.550 75, 32 74.100, 32 73 C 32 71.900, 32.450 71, 33 71 C 33.550 71, 34 70.199, 34 69.221 C 34 68.242, 34.900 66.793, 36 66 C 37.100 65.207, 38 63.948, 38 63.201 C 38 62.454, 39.800 60.114, 42 58 C 44.200 55.886, 46 53.639, 46 53.007 C 46 51.522, 48.522 49, 50.007 49 C 50.639 49, 52.886 47.200, 55 45 C 57.114 42.800, 59.553 41, 60.422 41 C 61.290 41, 62 40.550, 62 40 C 62 39.450, 62.900 39, 64 39 C 65.100 39, 66 38.550, 66 38 C 66 37.450, 67.350 37, 69 37 C 70.650 37, 72 36.550, 72 36 C 72 35.450, 73.800 35, 76 35 C 78.200 35, 80 34.550, 80 34 C 80 33.450, 80.450 33, 81 33 C 81.606 33, 82 37.333, 82 44 C 82 50.667, 81.606 55, 81 55 C 80.444 55, 80 57.667, 80 61 C 80 64.333, 79.556 67, 79 67 C 78.450 67, 78 67.687, 78 68.526 C 78 69.366, 75.987 72.066, 73.526 74.526 C 71.066 76.987, 68.366 79, 67.526 79 C 66.687 79, 66 79.450, 66 80 C 66 80.550, 64.650 81, 63 81 C 61.350 81, 60 81.450, 60 82 C 60 82.593, 56.333 83, 51 83 L 42 83 42 80 C 42 78.350, 42.450 77, 43 77 C 43.550 77, 44 76.100, 44 75 C 44 73.900, 44.450 73, 45 73 C 45.550 73, 46 72.100, 46 71 C 46 69.900, 46.450 69, 47 69 C 47.550 69, 48 68.100, 48 67 C 48 65.900, 48.450 65, 49 65 C 49.550 65, 50 64.199, 50 63.221 C 50 62.242, 50.900 60.793, 52 60 C 53.100 59.207, 54 57.938, 54 57.180 C 54 56.423, 55.350 54.541, 57 53 C 58.650 51.459, 60 49.516, 60 48.682 C 60 47.849, 60.563 46.966, 61.250 46.720 C 61.938 46.475, 62.165 45.915, 61.756 45.477 C 61.347 45.038, 60.170 45.651, 59.139 46.840 C 58.109 48.028, 56.531 49, 55.633 49 C 54.667 49, 54 49.817, 54 51 C 54 52.333, 53.333 53, 52 53 C 50.834 53, 50 53.667, 50 54.599 C 50 55.478, 48.650 57.459, 47 59 C 45.350 60.541, 44 62.423, 44 63.180 C 44 63.938, 43.100 65.207, 42 66 C 40.900 66.793, 40 68.242, 40 69.221 C 40 70.199, 39.550 71, 39 71 C 38.450 71, 38 71.900, 38 73 C 38 74.100, 37.550 75, 37 75 C 36.450 75, 36 75.900, 36 77 C 36 78.100, 35.550 79, 35 79 C 34.450 79, 34 80.350, 34 82 C 34 83.650, 33.550 85, 33 85 C 32.450 85, 32 86.350, 32 88 C 32 89.650, 31.550 91, 31 91 C 30.450 91, 30 92.350, 30 94 C 30 95.650, 29.550 97, 29 97 C 28.444 97, 28 99.667, 28 103 C 28 106.333, 27.556 109, 27 109 C 26.450 109, 26 109.450, 26 110 C 26 110.630, 32.667 111, 44 111 L 62 111 62 102 L 62 93 68 93 C 71.333 93, 74 92.556, 74 92 C 74 91.450, 76.250 91, 79 91 C 81.750 91, 84 90.550, 84 90 C 84 89.450, 84.900 89, 86 89 C 87.100 89, 88 88.550, 88 88 C 88 87.450, 88.687 87, 89.526 87 C 91.387 87, 100 78.568, 100 76.747 C 100 76.029, 100.900 74.793, 102 74 C 103.174 73.153, 104 71.411, 104 69.779 C 104 68.251, 104.450 67, 105 67 C 105.600 67, 106 63, 106 57 C 106 51, 105.600 47, 105 47 C 104.450 47, 104 45.650, 104 44 C 104 42.350, 103.550 41, 103 41 C 102.450 41, 102 40.315, 102 39.478 C 102 37.498, 91.502 27, 89.522 27 C 88.685 27, 88 26.550, 88 26 C 88 25.450, 87.100 25, 86 25 C 84.900 25, 84 24.550, 84 24 C 84 23.450, 82.650 23, 81 23 C 79.350 23, 78 22.550, 78 22 C 78 21.359, 69.124 21.022, 53.250 21.061 L 28.500 21.122 26.250 23.525" stroke="none" fill="#549154" fill-rule="evenodd"/><path d="M 0 63.507 L 0 127.015 63.750 126.757 L 127.500 126.500 127.757 63.250 L 128.015 0 64.007 0 L 0 0 0 63.507 M 0.471 64 C 0.471 98.925, 0.596 113.212, 0.749 95.750 C 0.903 78.287, 0.903 49.712, 0.749 32.250 C 0.596 14.787, 0.471 29.075, 0.471 64 M 26.250 23.525 C 24.015 25.912, 24 26.139, 24 57.464 C 24 77.821, 24.354 89, 25 89 C 25.550 89, 26 88.100, 26 87 C 26 85.900, 26.450 85, 27 85 C 27.550 85, 28 84.100, 28 83 C 28 81.900, 28.450 81, 29 81 C 29.550 81, 30 79.650, 30 78 C 30 76.350, 30.450 75, 31 75 C 31.550 75, 32 74.100, 32 73 C 32 71.900, 32.450 71, 33 71 C 33.550 71, 34 70.199, 34 69.221 C 34 68.242, 34.900 66.793, 36 66 C 37.100 65.207, 38 63.948, 38 63.201 C 38 62.454, 39.800 60.114, 42 58 C 44.200 55.886, 46 53.639, 46 53.007 C 46 51.522, 48.522 49, 50.007 49 C 50.639 49, 52.886 47.200, 55 45 C 57.114 42.800, 59.553 41, 60.422 41 C 61.290 41, 62 40.550, 62 40 C 62 39.450, 62.900 39, 64 39 C 65.100 39, 66 38.550, 66 38 C 66 37.450, 67.350 37, 69 37 C 70.650 37, 72 36.550, 72 36 C 72 35.450, 73.800 35, 76 35 C 78.200 35, 80 34.550, 80 34 C 80 33.450, 80.450 33, 81 33 C 81.606 33, 82 37.333, 82 44 C 82 50.667, 81.606 55, 81 55 C 80.444 55, 80 57.667, 80 61 C 80 64.333, 79.556 67, 79 67 C 78.450 67, 78 67.687, 78 68.526 C 78 69.366, 75.987 72.066, 73.526 74.526 C 71.066 76.987, 68.366 79, 67.526 79 C 66.687 79, 66 79.450, 66 80 C 66 80.550, 64.650 81, 63 81 C 61.350 81, 60 81.450, 60 82 C 60 82.593, 56.333 83, 51 83 L 42 83 42 80 C 42 78.350, 42.450 77, 43 77 C 43.550 77, 44 76.100, 44 75 C 44 73.900, 44.450 73, 45 73 C 45.550 73, 46 72.100, 46 71 C 46 69.900, 46.450 69, 47 69 C 47.550 69, 48 68.100, 48 67 C 48 65.900, 48.450 65, 49 65 C 49.550 65, 50 64.199, 50 63.221 C 50 62.242, 50.900 60.793, 52 60 C 53.100 59.207, 54 57.938, 54 57.180 C 54 56.423, 55.350 54.541, 57 53 C 58.650 51.459, 60 49.516, 60 48.682 C 60 47.849, 60.563 46.966, 61.250 46.720 C 61.938 46.475, 62.165 45.915, 61.756 45.477 C 61.347 45.038, 60.170 45.651, 59.139 46.840 C 58.109 48.028, 56.531 49, 55.633 49 C 54.667 49, 54 49.817, 54 51 C 54 52.333, 53.333 53, 52 53 C 50.834 53, 50 53.667, 50 54.599 C 50 55.478, 48.650 57.459, 47 59 C 45.350 60.541, 44 62.423, 44 63.180 C 44 63.938, 43.100 65.207, 42 66 C 40.900 66.793, 40 68.242, 40 69.221 C 40 70.199, 39.550 71, 39 71 C 38.450 71, 38 71.900, 38 73 C 38 74.100, 37.550 75, 37 75 C 36.450 75, 36 75.900, 36 77 C 36 78.100, 35.550 79, 35 79 C 34.450 79, 34 80.350, 34 82 C 34 83.650, 33.550 85, 33 85 C 32.450 85, 32 86.350, 32 88 C 32 89.650, 31.550 91, 31 91 C 30.450 91, 30 92.350, 30 94 C 30 95.650, 29.550 97, 29 97 C 28.444 97, 28 99.667, 28 103 C 28 106.333, 27.556 109, 27 109 C 26.450 109, 26 109.450, 26 110 C 26 110.630, 32.667 111, 44 111 L 62 111 62 102 L 62 93 68 93 C 71.333 93, 74 92.556, 74 92 C 74 91.450, 76.250 91, 79 91 C 81.750 91, 84 90.550, 84 90 C 84 89.450, 84.900 89, 86 89 C 87.100 89, 88 88.550, 88 88 C 88 87.450, 88.687 87, 89.526 87 C 91.387 87, 100 78.568, 100 76.747 C 100 76.029, 100.900 74.793, 102 74 C 103.174 73.153, 104 71.411, 104 69.779 C 104 68.251, 104.450 67, 105 67 C 105.600 67, 106 63, 106 57 C 106 51, 105.600 47, 105 47 C 104.450 47, 104 45.650, 104 44 C 104 42.350, 103.550 41, 103 41 C 102.450 41, 102 40.315, 102 39.478 C 102 37.498, 91.502 27, 89.522 27 C 88.685 27, 88 26.550, 88 26 C 88 25.450, 87.100 25, 86 25 C 84.900 25, 84 24.550, 84 24 C 84 23.450, 82.650 23, 81 23 C 79.350 23, 78 22.550, 78 22 C 78 21.359, 69.124 21.022, 53.250 21.061 L 28.500 21.122 26.250 23.525" stroke="none" fill="transparent" fill-rule="evenodd"/></svg>